<?xml version="1.0" encoding="UTF-8"?>
<svg width="400px" height="400px" viewBox="0 0 400 400" version="1.1" xmlns="http://www.w3.org/2000/svg" xmlns:xlink="http://www.w3.org/1999/xlink">
    <!-- Generator: Sketch 53.2 (72643) - https://sketchapp.com -->
    <title>MyNightSky_Emblem_Dark_v1.0</title>
    <desc>Created with Sketch.</desc>
    <g id="Marks" stroke="none" stroke-width="1" fill="none" fill-rule="evenodd">
        <path d="M201.842712,218 L245,218 L245,258.082821 C282.117266,266.61718 315.28941,285.480833 341.328152,311.4855 C360.091056,287.73259 372.99367,259.136707 377.8539,227.879936 C339.53125,197.547895 295.256307,178.396429 249.417174,170.425538 L201.842712,218 Z M198.157288,218 L150.582826,170.425538 C104.743693,178.396429 60.4687497,197.547895 22.1461001,227.879936 C27.0063299,259.136707 39.9089441,287.73259 58.6718528,311.485496 C84.7105897,285.480833 117.882734,266.61718 155,258.082821 L155,218 L198.157288,218 Z M20.0521305,204.375139 C54.6989063,179.250538 93.4114882,162.258928 133.557622,153.400307 L63.1843208,83.0270306 C36.2608694,114.487899 20,155.344985 20,200 C20,201.462519 20.0174424,202.920964 20.0521305,204.375139 Z M77.0111263,68.5695675 L150.400974,141.959415 L200,92.3603897 L249.599026,141.959415 L322.988874,68.5695675 C290.808971,38.4441225 247.558413,20 200,20 C152.441587,20 109.191029,38.4441225 77.0111263,68.5695675 Z M336.81568,83.0270321 L266.4424,153.400312 L266.442378,153.400307 C306.588512,162.258928 345.301094,179.250538 379.947869,204.375139 C379.982558,202.920964 380,201.462519 380,200 C380,155.344986 363.739131,114.487901 336.81568,83.0270321 Z M328.053729,326.5 C305.541736,303.713241 276.991931,286.904941 245,278.670787 L245,308 L155,308 L155,278.670787 C123.008069,286.904941 94.458264,303.713241 71.9462709,326.5 C104.579181,359.531205 149.899219,380 200,380 C250.100781,380 295.420819,359.531205 328.053729,326.5 Z M175,288 L225,288 L225,238 L175,238 L175,288 Z M200,400 C89.54305,400 0,310.45695 0,200 C0,89.54305 89.54305,0 200,0 C310.45695,0 400,89.54305 400,200 C400,310.45695 310.45695,400 200,400 Z M200,120.644661 L164.644661,156 L200,191.355339 L235.355339,156 L200,120.644661 Z" id="MyNightSky_Emblem_Dark_v1.0" fill="#000000" fill-rule="nonzero"></path>
    </g>
</svg>