<?xml version="1.0" encoding="UTF-8"?>
<svg width="2078px" height="400px" viewBox="0 0 2078 400" version="1.1" xmlns="http://www.w3.org/2000/svg" xmlns:xlink="http://www.w3.org/1999/xlink">
    <!-- Generator: Sketch 53.2 (72643) - https://sketchapp.com -->
    <title>MyNightSky_Horizontal_Logotype_Light_Color_v1.0</title>
    <desc>Created with Sketch.</desc>
    <g id="Marks" stroke="none" stroke-width="1" fill="none" fill-rule="evenodd">
        <g id="MyNightSky_Horizontal_Logotype_Light_Color_v1.0" fill-rule="nonzero">
            <path d="M489.828,308 L489.828,92.768 L533.3,92.768 L601.7,255.712 L602.916,255.712 L670.708,92.768 L714.18,92.768 L714.18,308 L684.996,308 L684.996,131.072 L684.388,131.072 L611.732,308 L592.276,308 L519.62,131.072 L519.012,131.072 L519.012,308 L489.828,308 Z M794.170898,307.361816 L735.06,163.904 L766.676,163.904 L809.54,276.384 L810.148,276.384 L850.884,163.904 L880.372,163.904 L795.972,380.712 L766.132,380.712 L794.170898,307.361816 Z M903.38,308 L903.38,92.768 L941.684,92.768 L1060.244,269.696 L1060.852,269.696 L1060.852,92.768 L1090.036,92.768 L1090.036,308 L1052.948,308 L933.172,131.072 L932.564,131.072 L932.564,308 L903.38,308 Z M1132.5,308 L1132.5,163.904 L1159.86,163.904 L1159.86,308 L1132.5,308 Z M1124,131.92031 L1145.92031,110 L1167.84062,131.92031 L1145.92031,153.84062 L1124,131.92031 Z M1339.732,163.904 L1339.732,306.784 C1339.732,350.256 1308.116,380.96 1260.996,380.96 C1233.636,380.96 1210.836,373.968 1190.468,355.12 L1209.012,332.016 C1223.3,347.216 1239.412,355.424 1260.388,355.424 C1301.124,355.424 1312.372,329.888 1312.372,305.568 L1312.372,284.288 L1311.46,284.288 C1301.124,301.616 1281.364,309.824 1261.604,309.824 C1219.348,309.824 1188.036,277.904 1188.34,235.952 C1188.34,193.392 1216.916,160.256 1261.604,160.256 C1281.06,160.256 1301.124,169.072 1311.764,184.576 L1312.372,184.576 L1312.372,163.904 L1339.732,163.904 Z M1264.948,185.792 C1235.764,185.792 1217.524,206.768 1217.524,235.952 C1217.524,265.136 1235.764,284.288 1264.948,284.288 C1294.132,284.288 1312.372,265.136 1312.372,235.952 C1312.372,206.768 1294.132,185.792 1264.948,185.792 Z M1373.076,308 L1373.076,92.176 L1400.436,92.176 L1400.436,186.096 L1401.044,186.096 C1408.036,170.896 1426.276,160.256 1448.468,160.256 C1476.436,160.256 1500.756,176.976 1500.756,215.28 L1500.756,308 L1473.396,308 L1473.396,222.88 C1473.396,195.824 1457.892,185.792 1440.564,185.792 C1417.764,185.792 1400.436,200.384 1400.436,233.824 L1400.436,308 L1373.076,308 Z M1611.316,163.904 L1611.316,187.616 L1572.1,187.616 L1572.1,252.976 C1572.1,269.088 1572.1,286.112 1592.772,286.112 C1599.156,286.112 1606.756,285.2 1612.228,281.856 L1612.228,306.784 C1605.844,310.432 1593.076,311.648 1587.604,311.648 C1545.348,311.648 1544.74,285.808 1544.74,262.704 L1544.74,187.616 L1513.124,187.616 L1513.124,163.904 L1544.74,163.904 L1544.74,123.472 L1572.1,123.472 L1572.1,163.904 L1611.316,163.904 Z M1627.94,283.68 L1651.956,263.008 C1662.292,278.816 1680.228,286.112 1697.556,286.112 C1716.708,286.112 1740.42,273.952 1740.42,250.24 C1740.42,200.688 1634.324,231.392 1634.324,147.488 C1634.324,122.256 1655.604,87.296 1707.284,87.296 C1730.692,87.296 1753.188,92.16 1769.3,111.92 L1745.588,133.504 C1738.292,122.256 1724.004,114.656 1707.284,114.656 C1675.06,114.656 1665.332,134.112 1665.332,147.488 C1665.332,201.904 1771.428,169.376 1771.428,246.896 C1771.428,288.544 1737.988,313.472 1696.644,313.472 C1668.98,313.472 1642.532,304.048 1627.94,283.68 Z M1799.604,308 L1799.604,92.176 L1826.964,92.176 L1826.964,226.528 L1888.98,164.208 L1926.98,164.208 L1859.796,229.568 L1932.756,308 L1893.844,308 L1826.964,233.216 L1826.964,308 L1799.604,308 Z M1991.1709,307.361816 L1932.06,163.904 L1963.676,163.904 L2006.54,276.384 L2007.148,276.384 L2047.884,163.904 L2077.372,163.904 L1992.972,380.712 L1963.132,380.712 L1991.1709,307.361816 Z" id="Logotype-(Light)" fill="#FFFFFF"></path>
            <path d="M201.842712,218 L245,218 L245,258.082821 C282.117266,266.61718 315.28941,285.480833 341.328152,311.4855 C360.091056,287.73259 372.99367,259.136707 377.8539,227.879936 C339.53125,197.547895 295.256307,178.396429 249.417174,170.425538 L201.842712,218 Z M198.157288,218 L150.582826,170.425538 C104.743693,178.396429 60.4687497,197.547895 22.1461001,227.879936 C27.0063299,259.136707 39.9089441,287.73259 58.6718528,311.485496 C84.7105897,285.480833 117.882734,266.61718 155,258.082821 L155,218 L198.157288,218 Z M20.0521305,204.375139 C54.6989063,179.250538 93.4114882,162.258928 133.557622,153.400307 L63.1843208,83.0270306 C36.2608694,114.487899 20,155.344985 20,200 C20,201.462519 20.0174424,202.920964 20.0521305,204.375139 Z M77.0111263,68.5695675 L150.400974,141.959415 L200,92.3603897 L249.599026,141.959415 L322.988874,68.5695675 C290.808971,38.4441225 247.558413,20 200,20 C152.441587,20 109.191029,38.4441225 77.0111263,68.5695675 Z M336.81568,83.0270321 L266.4424,153.400312 L266.442378,153.400307 C306.588512,162.258928 345.301094,179.250538 379.947869,204.375139 C379.982558,202.920964 380,201.462519 380,200 C380,155.344986 363.739131,114.487901 336.81568,83.0270321 Z M328.053729,326.5 C305.541736,303.713241 276.991931,286.904941 245,278.670787 L245,308 L155,308 L155,278.670787 C123.008069,286.904941 94.458264,303.713241 71.9462709,326.5 C104.579181,359.531205 149.899219,380 200,380 C250.100781,380 295.420819,359.531205 328.053729,326.5 Z M175,288 L225,288 L225,238 L175,238 L175,288 Z M200,400 C89.54305,400 0,310.45695 0,200 C0,89.54305 89.54305,0 200,0 C310.45695,0 400,89.54305 400,200 C400,310.45695 310.45695,400 200,400 Z M200,120.644661 L164.644661,156 L200,191.355339 L235.355339,156 L200,120.644661 Z" id="Combined-Shape" fill="#DE008D"></path>
        </g>
    </g>
</svg>